# xmcd CD database file
#
# Track frame offsets:
#	150
#	21668
#	38835
#	50531
#	64922
#	81677
#	95278
#	117583
#	131553
#	145971
#	165616
#	175045
#	193398
#	213298
#	224456
#	240907
#
# Disc length: 3882 seconds
#
# Revision: 0
# Processed by: cddbd v1.5.2PL0 Copyright (c) Steve Scherf et al.
# Submitted via: CDex 1.51
#
DISCID=f40f2810
DTITLE=Edgar Broughton Band - The Essential Edgar Broughton Band
DYEAR=2004
DGENRE=Blues
TTITLE0=Out Demons Out
TTITLE1=Old Gopher
TTITLE2=Evil
TTITLE3=Freedom
TTITLE4=Love In The Rain
TTITLE5=Up Yours!
TTITLE6=Why Can't Somebody Love Me?
TTITLE7=Momma's Reward (Keep Them Freaks A-Rollin)
TTITLE8=Apache Drop Out (Apache Intro Dropout Boogie)
TTITLE9=Don't Even Know Which Day It Is
TTITLE10=Thinking Of You
TTITLE11=Hotel Room
TTITLE12=Call Me A Liar
TTITLE13=They Took It Away
TTITLE14=Things On My Mind
TTITLE15=It's Not You
EXTD=YEAR: 2004
EXTT0=
EXTT1=
EXTT2=
EXTT3=
EXTT4=
EXTT5=
EXTT6=
EXTT7=
EXTT8=
EXTT9=
EXTT10=
EXTT11=
EXTT12=
EXTT13=
EXTT14=
EXTT15=
PLAYORDER=
